<svg id="Layer_1" enable-background="new 0 0 512 512" height="512" viewBox="0 0 512 512" width="512" xmlns="http://www.w3.org/2000/svg"><g><path d="m434.852 434.42c41.021-43.804 66.15-102.674 66.15-167.423 0-135.311-109.691-245.002-245.002-245.002-135.312 0-245.002 109.691-245.002 245.002 0 37.029 8.23 72.13 22.936 103.599z" fill="#73c3f9"/><path d="m406.273 460.474c10.509-8.176 20.348-17.174 29.391-26.924v-131.26h-88.252c-5.279 0-9.575-4.295-9.575-9.575v-127.445c0-5.28 4.296-9.575 9.575-9.575h88.252v-114.245c0-22.892-18.558-41.45-41.45-41.45h-319.334c-22.892 0-41.45 18.558-41.45 41.45v328.067c7.882 17.083 17.672 33.104 29.096 47.79z" fill="#167cc1"/><path d="m198.097 400.732c.087-.337.111-.686.069-1.032l-26.31-216.453c-.077-.633-.382-1.209-.831-1.662-7.322-7.393-3.327-15.522-1.444-18.468.483-.757.583-1.697.246-2.529l-16.1-39.752c-.098-.241-.232-.468-.395-.671-19.851-24.896-7.455-46.721-3.386-52.595.611-.882.596-2.017.095-2.965-1.387-2.625-.043-5.425.674-6.607.258-.426.385-.92.385-1.418v-18.699c0-.62-.218-1.22-.599-1.71-1.875-2.414-1.153-4.928-.36-6.461.491-.949.424-2.09-.217-2.945-8.734-11.661-3.521-21.049-.51-24.889.433-.552.618-1.221.574-1.875h-75.108c-22.892-.001-41.45 18.557-41.45 41.449v328.067c7.882 17.083 17.672 33.104 29.096 47.79l132.001 16.577c-.325-17.073 2.87-30.445 3.57-33.152z" fill="#0e62a8"/><path d="m407.419 302.29h-60.008c-5.279 0-9.575-4.295-9.575-9.575v-127.445c0-5.28 4.296-9.575 9.575-9.575h60.008c0-51.117 0-87.907 0-91.766h-345.745v352.271c44.79 58.249 115.167 95.8 194.326 95.8 57.157 0 109.741-19.574 151.419-52.382 0-40.961 0-98.632 0-157.328z" fill="#e9efff"/><path d="m61.674 416.2c41.457 53.913 104.84 90.071 176.811 95.158-59.181-31.817-42.122-103.922-40.388-110.626.087-.337.111-.686.069-1.032l-26.31-216.453c-.077-.633-.382-1.209-.831-1.662-7.322-7.393-3.327-15.522-1.444-18.468.483-.757.583-1.697.246-2.529l-16.1-39.752c-.098-.241-.232-.468-.395-.671-19.851-24.896-7.455-46.721-3.386-52.595.611-.882.596-2.017.095-2.965-.119-.225-.211-.45-.292-.676h-88.075z" fill="#d3dcfb"/><path d="m210.299 382.279c-4.274-.315-8.541.606-12.363 2.545-7.001 3.553-19.347 8.663-32.355 8.417l-11.319 26.12c-2.387 5.508-.65 11.934 4.186 15.49 5.225 3.842 12.66 2.115 15.629-3.651 16.434-31.908 47.579-48.03 47.579-48.03l-1.164-.987c-3.811.374-7.364.305-10.193.096z" fill="#ff7186"/><path d="m242.04 363.454c-55.593 0-39.388-29.977-109.563-6.407l-.293.654s-3.99 21.804 15.217 32.103c18.496 9.918 40.265 1.345 50.536-3.867 3.822-1.939 8.088-2.861 12.363-2.545 10.688.789 31.653-.358 38.18-20.131-2.076.123-4.216.193-6.44.193z" fill="#e80054"/><path d="m132.476 357.047-.293.654s-3.99 21.804 15.216 32.103c14.647 7.854 31.343 4.111 42.759-.375-27.604-11.573-8.057-40.352-8.057-40.352l-.148-.578c-10.243-1.471-24.3.092-49.477 8.548z" fill="#cc0053"/><path d="m365.616 95.114h-53.191v25.399h53.191c7.014 0 12.699-5.686 12.699-12.7s-5.685-12.699-12.699-12.699z" fill="#d3dcfb"/><path d="m313.472 95.114h-17.903c-7.014 0-12.7 5.686-12.7 12.7s5.686 12.7 12.7 12.7h17.903z" fill="#3c58a0"/><path d="m394.214 28.244h-319.333c-7.264 0-13.206 5.943-13.206 13.206v24.57h345.745v-24.57c-.001-7.263-5.944-13.206-13.206-13.206z" fill="#2a428c"/><path d="m150.716 57.998c.258-.426.385-.92.385-1.418v-18.699c0-.62-.218-1.22-.599-1.71-1.875-2.414-1.153-4.928-.36-6.461.238-.461.34-.968.313-1.465h-75.574c-7.264 0-13.207 5.943-13.207 13.206v24.57h88.733c-.006-.483-.13-.97-.365-1.416-1.386-2.625-.043-5.425.674-6.607z" fill="#1c2e7a"/><g><path d="m104.507 47.133c0 5.681-4.605 10.286-10.286 10.286s-10.287-4.605-10.287-10.286 4.605-10.287 10.287-10.287c5.681 0 10.286 4.606 10.286 10.287z" fill="#ff4155"/></g><g><circle cx="122.661" cy="47.133" fill="#ffdd40" r="10.286"/></g><g><circle cx="151.101" cy="47.133" fill="#38c674" r="10.286"/></g><g><path d="m298.381 54.978h-103.213c-4.333 0-7.846-3.513-7.846-7.846s3.513-7.846 7.846-7.846h103.213c4.333 0 7.846 3.513 7.846 7.846 0 4.334-3.513 7.846-7.846 7.846z" fill="#3c58a0"/></g><g><path d="m382.224 54.978h-8.944c-4.333 0-7.846-3.513-7.846-7.846s3.513-7.846 7.846-7.846h8.944c4.333 0 7.846 3.513 7.846 7.846 0 4.334-3.513 7.846-7.846 7.846z" fill="#3c58a0"/></g><g><path d="m351.129 54.978h-8.944c-4.333 0-7.846-3.513-7.846-7.846s3.513-7.846 7.846-7.846h8.944c4.333 0 7.846 3.513 7.846 7.846 0 4.334-3.513 7.846-7.846 7.846z" fill="#3c58a0"/></g><path d="m347.411 302.29c-5.288 0-9.575-4.287-9.575-9.575v-89.783c-6.711-3.377-13.866-3.724-18.652-3.429-3.154.195-6.177-1.392-7.699-4.162-3.245-5.906-11.109-15.811-29.085-22.094-20.869-7.294-37.166-.872-44.49 3.162-2.599 1.432-5.745 1.314-8.251-.274-5.762-3.649-17.376-9.045-32.691-6.208-18.902 3.502-27.325 13.598-30.667 19.305-1.432 2.447-4.001 3.991-6.835 4.06-9.353.226-26.36 2.433-39.902 20.037-12.525 16.283-10.647 35.072-8.924 43.449.548 2.663-.296 5.429-2.228 7.343-6.52 6.458-19.627 23.881-12.229 54.611 7.066 29.352 36 38.969 36 38.969 70.516-23.752 54.186 6.31 109.856 6.31 40.334 0 55.536-20.943 60.851-32.482 1.756-3.813 6.154-5.597 10.113-4.201 23.452 8.267 33.496-5.998 36.806-12.76.944-1.928 2.574-3.427 4.598-4.144 3.052-1.082 7.755-3.391 11.912-8.134z" fill="#ff7186"/><path d="m251.725 296.036-3.093-15.383c-51.798 3.317-52.375-43.14-52.375-43.14l-30.818-47.094c-1.488 1.744-3.634 2.816-5.972 2.873-9.353.226-26.36 2.433-39.902 20.037-12.525 16.284-10.646 35.072-8.924 43.449.548 2.663-.296 5.429-2.228 7.343-6.52 6.458-19.627 23.881-12.229 54.611 7.065 29.352 36 38.969 36 38.969 70.516-23.753 54.186 6.309 109.857 6.309 11.235 0 20.516-1.628 28.18-4.222-39.683-19.732-18.496-63.752-18.496-63.752z" fill="#ff4155"/><g fill="#e80054"><path d="m303.785 330.049c2.095-2.767 5.817-3.921 9.219-2.721 2.273.801 4.418 1.386 6.445 1.791-.377-6.341-2.844-24.513-18.5-37.041-21.665-17.339-51.076-11.676-52.317-11.424-4.248.854-6.999 4.99-6.145 9.238.854 4.247 4.985 7 9.239 6.145.232-.048 23.408-4.52 39.419 8.292 10.82 8.659 12.407 21.916 12.64 25.72z"/><path d="m132.969 317.817c2.437-2.67 5.195-7.462 4.492-15.125-.561-6.115-3.272-12.056-7.634-16.725-5.47-5.858-15.233-17.453-19.15-29.313-.037-.113-.085-.218-.127-.328.03.152.06.308.09.453.548 2.663-.296 5.429-2.228 7.343-2.054 2.035-4.762 5.161-7.277 9.447 5.086 9.158 11.762 17.259 17.225 23.108 1.997 2.138 3.231 4.783 3.475 7.448.136 1.487-.035 2.652-.457 3.116-.577.631-2.541 1.369-6.182 1.369-4.333 0-7.846 3.512-7.846 7.846s3.513 7.846 7.846 7.846c7.868-.001 13.847-2.182 17.773-6.485z"/><path d="m190.769 239.757c4.333 0 7.846-3.512 7.846-7.846 0-27.026-19.711-44.268-26.877-49.643-2.552 2.542-4.292 5.01-5.436 6.964-1.324 2.26-3.62 3.735-6.197 4.003.206.165.422.32.647.467.222.144 22.172 14.613 22.172 38.21 0 4.333 3.512 7.845 7.845 7.845z"/><path d="m316.394 199.959c.542-.106 1.059-.268 1.549-.474-2.686-.231-5.137-1.74-6.457-4.143-1.23-2.239-3.13-5.054-5.988-8.028-5.482 2.565-12.818 7.329-18.767 15.933-2.465 3.564-1.573 8.451 1.991 10.915 1.362.942 2.916 1.393 4.455 1.393 2.489 0 4.938-1.182 6.46-3.384 6.903-9.983 16.221-12.098 16.757-12.212z"/><path d="m251.068 207.971c.281 0 .566-.015.851-.046 4.308-.465 7.424-4.335 6.959-8.642-1.301-12.061-6.599-21.248-11.048-27.033-4.162 1.267-7.523 2.84-9.919 4.16-2.276 1.254-4.972 1.318-7.29.249.199.211.41.415.636.607.104.088 10.434 8.992 12.021 23.7.433 4.022 3.834 7.005 7.79 7.005z"/></g><g><path d="m210.475 224.349c-17.889 0-28.63-8.237-29.186-8.673-3.407-2.676-4-7.609-1.323-11.017 2.661-3.388 7.552-3.993 10.958-1.369.588.438 11.793 8.526 30.556 4.015 4.213-1.005 8.449 1.583 9.461 5.796s-1.583 8.449-5.796 9.462c-5.301 1.273-10.209 1.786-14.67 1.786z" fill="#e80054"/></g><g><path d="m275.491 295.629c-2.619 0-5.178-1.31-6.665-3.695-12.263-19.667-.271-37.102.245-37.835 2.497-3.543 7.392-4.389 10.933-1.892 3.521 2.483 4.379 7.337 1.933 10.874-.701 1.047-6.329 10.074.204 20.55 2.292 3.678 1.17 8.517-2.506 10.809-1.292.805-2.727 1.189-4.144 1.189z" fill="#e80054"/></g><g><path d="m164.17 158.465-14.799-22.3h-26.71c-4.333 0-7.846-3.513-7.846-7.846s3.513-7.846 7.846-7.846h30.92c2.629 0 5.083 1.317 6.537 3.508l17.127 25.806c2.396 3.61 1.412 8.48-2.199 10.876-3.596 2.387-8.469 1.427-10.876-2.198z" fill="#bec8f7"/></g><g><path d="m326.749 412.223h-30.92c-2.629 0-5.083-1.317-6.537-3.507l-17.127-25.806c-2.396-3.61-1.412-8.479 2.198-10.875 3.611-2.397 8.479-1.413 10.876 2.198l14.799 22.299h26.71c4.333 0 7.846 3.512 7.846 7.846.001 4.333-3.512 7.845-7.845 7.845z" fill="#bec8f7"/></g><g><path d="m467.426 303.86h-120.015c-6.129 0-11.144-5.015-11.144-11.144v-127.446c0-6.129 5.015-11.144 11.144-11.144h120.015c6.129 0 11.144 5.015 11.144 11.144v127.446c0 6.129-5.015 11.144-11.144 11.144z" fill="#ffdd40"/></g><path d="m388.089 278.834v-99.682c0-13.764 11.262-25.026 25.026-25.026h-65.703c-6.129 0-11.144 5.015-11.144 11.144v127.446c0 6.129 5.015 11.144 11.144 11.144h65.703c-13.765-.001-25.026-11.262-25.026-25.026z" fill="#ffb332"/><g><g><path d="m418.59 206.219h-54.807c-4.333 0-7.846-3.512-7.846-7.846 0-4.333 3.513-7.846 7.846-7.846h54.807c4.333 0 7.846 3.512 7.846 7.846-.001 4.333-3.514 7.846-7.846 7.846z" fill="#fcf2c8"/></g></g><g><g><path d="m451.395 236.838h-87.612c-4.333 0-7.846-3.512-7.846-7.846 0-4.333 3.513-7.846 7.846-7.846h87.612c4.333 0 7.846 3.512 7.846 7.846-.001 4.334-3.513 7.846-7.846 7.846z" fill="#ff9100"/></g></g><g><g><path d="m451.395 267.458h-87.612c-4.333 0-7.846-3.512-7.846-7.846s3.513-7.846 7.846-7.846h87.612c4.333 0 7.846 3.512 7.846 7.846-.001 4.334-3.513 7.846-7.846 7.846z" fill="#ff9100"/></g></g></g></svg>